<svg width="267" height="193" viewBox="0 0 267 193" fill="none" xmlns="http://www.w3.org/2000/svg">
<rect width="8" height="8" fill="white"/>
<rect y="74" width="8" height="8" fill="white" fill-opacity="0.6"/>
<rect y="148" width="8" height="8" fill="white" fill-opacity="0.2"/>
<rect y="37" width="8" height="8" fill="white" fill-opacity="0.8"/>
<rect y="111" width="8" height="8" fill="white" fill-opacity="0.4"/>
<rect y="185" width="8" height="8" fill="white" fill-opacity="0.05"/>
<rect x="148" width="8" height="8" fill="white"/>
<rect x="148" y="74" width="8" height="8" fill="white" fill-opacity="0.6"/>
<rect x="148" y="148" width="8" height="8" fill="white" fill-opacity="0.2"/>
<rect x="148" y="37" width="8" height="8" fill="white" fill-opacity="0.8"/>
<rect x="148" y="111" width="8" height="8" fill="white" fill-opacity="0.4"/>
<rect x="148" y="185" width="8" height="8" fill="white" fill-opacity="0.05"/>
<rect x="37" width="8" height="8" fill="white"/>
<rect x="37" y="74" width="8" height="8" fill="white" fill-opacity="0.6"/>
<rect x="37" y="148" width="8" height="8" fill="white" fill-opacity="0.2"/>
<rect x="37" y="37" width="8" height="8" fill="white" fill-opacity="0.8"/>
<rect x="37" y="111" width="8" height="8" fill="white" fill-opacity="0.4"/>
<rect x="37" y="185" width="8" height="8" fill="white" fill-opacity="0.05"/>
<rect x="185" width="8" height="8" fill="white"/>
<rect x="185" y="74" width="8" height="8" fill="white" fill-opacity="0.6"/>
<rect x="185" y="148" width="8" height="8" fill="white" fill-opacity="0.2"/>
<rect x="185" y="37" width="8" height="8" fill="white" fill-opacity="0.8"/>
<rect x="185" y="111" width="8" height="8" fill="white" fill-opacity="0.4"/>
<rect x="185" y="185" width="8" height="8" fill="white" fill-opacity="0.05"/>
<rect x="74" width="8" height="8" fill="white"/>
<rect x="74" y="74" width="8" height="8" fill="white" fill-opacity="0.6"/>
<rect x="74" y="148" width="8" height="8" fill="white" fill-opacity="0.2"/>
<rect x="74" y="37" width="8" height="8" fill="white" fill-opacity="0.8"/>
<rect x="74" y="111" width="8" height="8" fill="white" fill-opacity="0.4"/>
<rect x="74" y="185" width="8" height="8" fill="white" fill-opacity="0.05"/>
<rect x="222" width="8" height="8" fill="white"/>
<rect x="222" y="74" width="8" height="8" fill="white" fill-opacity="0.6"/>
<rect x="222" y="148" width="8" height="8" fill="white" fill-opacity="0.2"/>
<rect x="222" y="37" width="8" height="8" fill="white" fill-opacity="0.8"/>
<rect x="222" y="111" width="8" height="8" fill="white" fill-opacity="0.4"/>
<rect x="222" y="185" width="8" height="8" fill="white" fill-opacity="0.05"/>
<rect x="111" width="8" height="8" fill="white"/>
<rect x="111" y="74" width="8" height="8" fill="white" fill-opacity="0.6"/>
<rect x="111" y="148" width="8" height="8" fill="white" fill-opacity="0.2"/>
<rect x="111" y="37" width="8" height="8" fill="white" fill-opacity="0.8"/>
<rect x="111" y="111" width="8" height="8" fill="white" fill-opacity="0.4"/>
<rect x="111" y="185" width="8" height="8" fill="white" fill-opacity="0.05"/>
<rect x="259" width="8" height="8" fill="white"/>
<rect x="259" y="74" width="8" height="8" fill="white" fill-opacity="0.6"/>
<rect x="259" y="148" width="8" height="8" fill="white" fill-opacity="0.2"/>
<rect x="259" y="37" width="8" height="8" fill="white" fill-opacity="0.8"/>
<rect x="259" y="111" width="8" height="8" fill="white" fill-opacity="0.4"/>
<rect x="259" y="185" width="8" height="8" fill="#EF30C5"/>
</svg>
