<svg width="223" height="183" viewBox="0 0 223 183" fill="none" xmlns="http://www.w3.org/2000/svg">
 <style>.base { fill: white; font-family: sans-serif; font-size: 12px; }</style>
<rect width="223" height="183" fill="black"/>
<path fill-rule="evenodd" clip-rule="evenodd" d="M24 24H31V29H192V24H199V32H193V152H199V160H192V155H31V160H24V152H29V32H24V24Z" fill="#4D127B"/>
<rect x="30" y="25" width="163" height="5" fill="#EF30C5"/>
<rect x="30" y="153" width="163" height="5" fill="#EF30C5"/>
<rect x="40" y="35" width="143" height="5" fill="#EF30C5"/>
<rect x="40" y="143" width="143" height="5" fill="#EF30C5"/>
<rect x="45" y="38" width="5" height="107" fill="#EF30C5"/>
<rect x="173" y="38" width="5" height="107" fill="#EF30C5"/>
<rect x="183" y="40" width="5" height="103" fill="#EF30C5"/>
<rect x="35" y="40" width="5" height="103" fill="#EF30C5"/>
<rect x="193" y="30" width="5" height="112" fill="#EF30C5"/>
<rect x="25" y="30" width="5" height="122" fill="#EF30C5"/>
<rect x="178" y="29" width="5" height="8" fill="#EF30C5"/>
<rect x="40" y="29" width="5" height="8" fill="#EF30C5"/>
<rect x="188" y="40" width="5" height="6" fill="#EF30C5"/>
<rect x="29" y="40" width="11" height="6" fill="#EF30C5"/>
<rect x="188" y="20" width="15" height="5" fill="#EF30C5"/>
<rect x="20" y="20" width="15" height="5" fill="#EF30C5"/>
<rect x="203" y="20" width="15" height="5" transform="rotate(90 203 20)" fill="#EF30C5"/>
<rect x="25" y="20" width="15" height="5" transform="rotate(90 25 20)" fill="#EF30C5"/>
<rect x="40" y="147" width="5" height="6" fill="#EF30C5"/>
<rect x="178" y="147" width="5" height="6" fill="#EF30C5"/>
<rect x="188" y="138" width="5" height="5" fill="#EF30C5"/>
<rect x="30" y="138" width="10" height="5" fill="#EF30C5"/>
<rect x="193" y="140" width="5" height="13" fill="#EF30C5"/>
<rect x="198" y="147" width="5" height="16" fill="#EF30C5"/>
<rect x="188" y="158" width="5" height="5" fill="#EF30C5"/>
<rect x="193" y="158" width="5" height="5" fill="#EF30C5"/>
<rect x="20" y="147" width="5" height="15" fill="#EF30C5"/>
<rect x="30" y="157" width="5" height="5" fill="#EF30C5"/>
<rect x="24" y="157" width="7" height="5" fill="#EF30C5"/>
<path d="M106.75 67H113.875V68.1875H115.062V72.9375H113.875V74.125H111.5V80.0625H113.875V82.4375H111.5V83.625H113.875V86H109.125V74.125H106.75V72.9375H105.562V68.1875H106.75V67Z" fill="white"/>
<text x="50%" y="60%" class="base" dominant-baseline="middle" text-anchor="middle">IBELICK</text>
<path d="M107.938 69.375H112.688V71.75H107.938V69.375Z" fill="#4D127B"/>
<rect x="33" y="33" width="4" height="4" fill="white"/>
<rect x="33" y="146" width="4" height="4" fill="white"/>
<rect x="186" y="33" width="4" height="4" fill="white"/>
<rect x="186" y="146" width="4" height="4" fill="white"/>
</svg>
