<svg width="48" height="50" viewBox="0 0 48 50" fill="none" xmlns="http://www.w3.org/2000/svg">
<path d="M42.6205 9.24219C44.5005 12.7622 36.7705 20.5422 25.3705 26.6422C13.9705 32.7422 3.15051 34.8222 1.27051 31.3122" stroke="#EF30C5" stroke-width="2"/>
<path d="M16.6197 38.8921C12.1297 40.1021 8.46973 40.2921 6.46973 39.2921" stroke="#EF30C5" stroke-width="2"/>
<path d="M46.3906 17.772C46.1006 21.772 39.0706 28.502 29.1806 33.772L28.6006 34.072" stroke="#EF30C5" stroke-width="2"/>
<path d="M32.7404 40.2822L31.7404 40.8222C24.7404 44.4122 18.1504 46.1122 14.9404 45.3622" stroke="#EF30C5" stroke-width="2"/>
<path d="M46.77 28.5322C45.77 30.8322 42.77 33.8722 38.46 36.8222" stroke="#EF30C5" stroke-width="2"/>
<path d="M43.4401 39.832C42.3101 41.632 39.4401 43.972 35.7901 45.932C32.3401 47.772 29.0201 48.832 26.8701 48.932" stroke="#EF30C5" stroke-width="2"/>
<path d="M9.1 23.8622C4.93 24.8622 1.86 24.6022 1 22.9922" stroke="#EF30C5" stroke-width="2"/>
<path d="M35.6204 4.50195C37.2004 7.50195 30.7304 14.002 21.1804 19.112C20.1804 19.662 19.1204 20.172 18.1104 20.642" stroke="#EF30C5" stroke-width="2"/>
<path d="M18.78 10.5823C18.23 10.9023 17.66 11.2323 17.07 11.5823C10.77 14.9523 4.82001 16.1023 3.78001 14.1623C2.74001 12.2223 7.01001 7.9223 13.32 4.5523C19.63 1.1823 25.62 -0.007698 26.62 1.9323C27.12 2.8723 26.37 4.3723 24.75 6.0523" stroke="#EF30C5" stroke-width="2"/>
</svg>
