<svg width="64" height="64" viewBox="0 0 64 64" fill="none" xmlns="http://www.w3.org/2000/svg">
<path d="M8 36H16V52H8" stroke="#EF30C5" stroke-width="2"/>
<path d="M16 38H24C25.0609 38 26.0783 38.4214 26.8284 39.1716C27.5786 39.9217 28 40.9391 28 42H37C37.7956 42 38.5587 42.3161 39.1213 42.8787C39.6839 43.4413 40 44.2044 40 45C40 45.7956 39.6839 46.5587 39.1213 47.1213C38.5587 47.6839 37.7956 48 37 48H26" stroke="#EF30C5" stroke-width="2"/>
<path d="M40 44.8L46.63 40.8C47.5371 40.2596 48.5741 39.9762 49.63 39.98C50.3893 39.9793 51.1414 40.1281 51.8431 40.4181C52.5449 40.7081 53.1827 41.1335 53.72 41.67L56 44L38.07 54.76C36.7129 55.5715 35.1612 56 33.58 56C32.5346 55.9991 31.498 55.8094 30.52 55.44L16 50" stroke="#EF30C5" stroke-width="2"/>
<path d="M38 36C45.732 36 52 29.732 52 22C52 14.268 45.732 8 38 8C30.268 8 24 14.268 24 22C24 29.732 30.268 36 38 36Z" stroke="#EF30C5" stroke-width="2"/>
<path d="M36.3302 22.0001C35.4772 21.9534 34.6746 21.5816 34.0874 20.9613C33.5001 20.341 33.1729 19.5193 33.1729 18.6651C33.1729 17.8109 33.5001 16.9891 34.0874 16.3688C34.6746 15.7485 35.4772 15.3768 36.3302 15.3301" stroke="#EF30C5" stroke-width="2"/>
<path d="M39.6699 22C40.5228 22.0467 41.3254 22.4185 41.9127 23.0388C42.5 23.6591 42.8272 24.4808 42.8272 25.335C42.8272 26.1892 42.5 27.0109 41.9127 27.6312C41.3254 28.2515 40.5228 28.6233 39.6699 28.67" stroke="#EF30C5" stroke-width="2"/>
<path d="M38 12V15.33" stroke="#EF30C5" stroke-width="2"/>
<path d="M38 28.6699V31.9999" stroke="#EF30C5" stroke-width="2"/>
<path d="M36.3301 22H39.6701" stroke="#EF30C5" stroke-width="2"/>
<path d="M43.0001 17.0001C43.0001 17.0001 41.3301 15.3301 39.6701 15.3301H36.3301" stroke="#EF30C5" stroke-width="2"/>
<path d="M33 27C33 27 34.67 28.67 36.33 28.67H39.67" stroke="#EF30C5" stroke-width="2"/>
</svg>
