<svg width="64" height="64" viewBox="0 0 64 64" fill="none" xmlns="http://www.w3.org/2000/svg">
<path d="M52 20V16C52 14.9391 51.5786 13.9217 50.8284 13.1716C50.0783 12.4214 49.0609 12 48 12H12C10.9391 12 9.92172 12.4214 9.17157 13.1716C8.42143 13.9217 8 14.9391 8 16V48C8 49.0609 8.42143 50.0783 9.17157 50.8284C9.92172 51.5786 10.9391 52 12 52H48C49.0609 52 50.0783 51.5786 50.8284 50.8284C51.5786 50.0783 52 49.0609 52 48V44" stroke="#EF30C5" stroke-width="2"/>
<path d="M36 20H54C54.5304 20 55.0391 20.2107 55.4142 20.5858C55.7893 20.9609 56 21.4696 56 22V42C56 42.5304 55.7893 43.0391 55.4142 43.4142C55.0391 43.7893 54.5304 44 54 44H36C32.8174 44 29.7652 42.7357 27.5147 40.4853C25.2643 38.2348 24 35.1826 24 32C24 28.8174 25.2643 25.7652 27.5147 23.5147C29.7652 21.2643 32.8174 20 36 20V20Z" stroke="#EF30C5" stroke-width="2"/>
<path d="M36 36C38.2091 36 40 34.2091 40 32C40 29.7909 38.2091 28 36 28C33.7909 28 32 29.7909 32 32C32 34.2091 33.7909 36 36 36Z" stroke="#EF30C5" stroke-width="2"/>
</svg>
